<svg width="20" height="20" viewBox="0 0 20 20" fill="none" xmlns="http://www.w3.org/2000/svg">
<g clip-path="url(#clip0_1_1255)">
<path d="M9.91889 3.20741C10.7933 3.20741 11.5021 2.49858 11.5021 1.62421C11.5021 0.74983 10.7933 0.041008 9.91889 0.041008C9.04451 0.041008 8.33569 0.74983 8.33569 1.62421C8.33569 2.49858 9.04451 3.20741 9.91889 3.20741Z" fill="white"/>
<path d="M9.91889 11.1236C10.7933 11.1236 11.5021 10.4148 11.5021 9.54045C11.5021 8.66607 10.7933 7.95725 9.91889 7.95725C9.04451 7.95725 8.33569 8.66607 8.33569 9.54045C8.33569 10.4148 9.04451 11.1236 9.91889 11.1236Z" fill="white"/>
<path d="M9.91889 19.0392C10.7933 19.0392 11.5021 18.3304 11.5021 17.456C11.5021 16.5816 10.7933 15.8728 9.91889 15.8728C9.04451 15.8728 8.33569 16.5816 8.33569 17.456C8.33569 18.3304 9.04451 19.0392 9.91889 19.0392Z" fill="white"/>
</g>
<defs>
<clipPath id="clip0_1_1255">
<rect width="18.9984" height="18.9984" fill="white" transform="translate(0.419922 0.0410156)"/>
</clipPath>
</defs>
</svg>
