<svg width="22" height="22" viewBox="0 0 22 22" fill="none" xmlns="http://www.w3.org/2000/svg">
<path d="M18.5625 6.1875V17.875C18.5625 18.0573 18.4901 18.2322 18.3611 18.3611C18.2322 18.4901 18.0573 18.5625 17.875 18.5625H4.125C3.94266 18.5625 3.7678 18.4901 3.63886 18.3611C3.50993 18.2322 3.4375 18.0573 3.4375 17.875V6.1875H18.5625Z" fill="#7F8F98"/>
<path d="M17.875 18.5625H4.125C3.94266 18.5625 3.7678 18.4901 3.63886 18.3611C3.50993 18.2322 3.4375 18.0573 3.4375 17.875V6.1875L4.8125 3.4375H17.1875L18.5625 6.1875V17.875C18.5625 18.0573 18.4901 18.2322 18.3611 18.3611C18.2322 18.4901 18.0573 18.5625 17.875 18.5625Z" stroke="#7F8F98" stroke-width="2" stroke-linecap="round" stroke-linejoin="round"/>
<path d="M8.08325 12.8957L11.0001 15.8125L13.9169 12.8957" stroke="white" stroke-width="1.5" stroke-linecap="round" stroke-linejoin="round"/>
<path d="M11 8.9375V15.8125" stroke="white" stroke-width="1.5" stroke-linecap="round" stroke-linejoin="round"/>
<path d="M3.4375 6.1875H18.5625" stroke="#7F8F98" stroke-width="2" stroke-linecap="round" stroke-linejoin="round"/>
</svg>
