<svg width="26" height="26" viewBox="0 0 26 26" fill="none" xmlns="http://www.w3.org/2000/svg">
<path d="M17.6379 12.83C18.1666 12.83 18.6834 12.6732 19.123 12.3795C19.5626 12.0858 19.9052 11.6683 20.1075 11.1799C20.3098 10.6915 20.3627 10.154 20.2596 9.63552C20.1564 9.11701 19.9019 8.64073 19.528 8.26691C19.1542 7.89308 18.6779 7.6385 18.1594 7.53536C17.6409 7.43222 17.1035 7.48516 16.615 7.68747C16.1266 7.88978 15.7091 8.23239 15.4154 8.67196C15.1217 9.11154 14.9649 9.62833 14.9649 10.157C14.9639 10.5083 15.0323 10.8564 15.1663 11.1812C15.3002 11.5059 15.4971 11.801 15.7455 12.0495C15.9939 12.2979 16.289 12.4947 16.6138 12.6287C16.9386 12.7626 17.2866 12.8311 17.6379 12.83ZM9.62194 11.761C10.2561 11.7608 10.876 11.5726 11.4033 11.2201C11.9305 10.8676 12.3414 10.3668 12.584 9.78081C12.8266 9.19484 12.89 8.55011 12.7663 7.9281C12.6425 7.3061 12.3371 6.73476 11.8886 6.28631C11.4402 5.83786 10.8688 5.53245 10.2468 5.40867C9.62484 5.2849 8.9801 5.34832 8.39414 5.59093C7.80817 5.83353 7.3073 6.24443 6.95483 6.77166C6.60237 7.2989 6.41414 7.9188 6.41394 8.553C6.41209 8.9748 6.4938 9.39279 6.65436 9.78284C6.81492 10.1729 7.05115 10.5273 7.34941 10.8255C7.64767 11.1238 8.00205 11.36 8.3921 11.5206C8.78215 11.6811 9.20014 11.7629 9.62194 11.761ZM17.6379 14.968C15.6819 14.968 11.7579 15.952 11.7579 17.908V20.313H23.5179V17.908C23.5199 15.951 19.5959 14.968 17.6379 14.968ZM9.62194 13.899C7.13094 13.899 2.13794 15.146 2.13794 17.641V20.314H9.62194V17.908C9.65135 17.1135 9.90489 16.3436 10.3533 15.6871C10.8017 15.0307 11.4266 14.5144 12.1559 14.198C11.323 14.0163 10.4743 13.9162 9.62194 13.899Z" fill="#7F8F98"/>
</svg>
