<svg width="24" height="24" viewBox="0 0 24 24" fill="none" xmlns="http://www.w3.org/2000/svg">
<rect width="24" height="24" rx="8" fill="#FF9C94"/>
<path d="M13.415 11.9998L16.001 9.41115C16.1689 9.22032 16.2579 8.97272 16.2497 8.71868C16.2416 8.46463 16.1371 8.22321 15.9574 8.04348C15.7776 7.86375 15.5362 7.75921 15.2822 7.7511C15.0281 7.74299 14.7805 7.83192 14.5897 7.99982L12.001 10.5858L9.40769 7.99182C9.31481 7.89893 9.20453 7.82525 9.08317 7.77497C8.9618 7.7247 8.83173 7.69883 8.70036 7.69883C8.569 7.69883 8.43892 7.7247 8.31756 7.77497C8.19619 7.82525 8.08592 7.89893 7.99303 7.99182C7.90014 8.0847 7.82646 8.19498 7.77619 8.31634C7.72591 8.43771 7.70004 8.56779 7.70004 8.69915C7.70004 8.83051 7.72591 8.96059 7.77619 9.08196C7.82646 9.20332 7.90014 9.31359 7.99303 9.40648L10.587 11.9998L8.00103 14.5878C7.89961 14.6785 7.81775 14.7889 7.76047 14.9123C7.70319 15.0356 7.67168 15.1694 7.66787 15.3054C7.66407 15.4414 7.68804 15.5767 7.73834 15.7031C7.78863 15.8295 7.86418 15.9443 7.96037 16.0405C8.05656 16.1367 8.17137 16.2122 8.29776 16.2625C8.42415 16.3128 8.55948 16.3368 8.69546 16.333C8.83143 16.3292 8.96521 16.2977 9.08859 16.2404C9.21197 16.1831 9.32237 16.1012 9.41303 15.9998L12.001 13.4138L14.5864 15.9998C14.774 16.1874 15.0284 16.2928 15.2937 16.2928C15.559 16.2928 15.8134 16.1874 16.001 15.9998C16.1886 15.8122 16.294 15.5578 16.294 15.2925C16.294 15.0272 16.1886 14.7727 16.001 14.5851L13.415 11.9998Z" fill="white"/>
</svg>
