<svg width="19" height="24" viewBox="0 0 19 24" fill="none" xmlns="http://www.w3.org/2000/svg">
<path d="M9.47179 23.9925H17.4588C17.854 23.9925 18.233 23.835 18.5124 23.5546C18.7918 23.2742 18.9488 22.8939 18.9488 22.4973V1.49515C18.9488 1.2987 18.9103 1.10417 18.8353 0.922691C18.7603 0.741209 18.6505 0.57633 18.512 0.437476C18.3735 0.298622 18.209 0.188517 18.0281 0.113452C17.8472 0.0383877 17.6533 -0.000164007 17.4575 5.24427e-07H6.81613V0.494626C6.82189 0.547022 6.82481 0.599693 6.82487 0.652406V4.74716C6.82454 5.30533 6.6034 5.84055 6.21006 6.23523C5.81671 6.62992 5.28332 6.8518 4.72704 6.85213H0.647445C0.605015 6.85213 0.56009 6.85213 0.522651 6.85213H-0.000244141V22.5049C-0.000244141 22.9014 0.156747 23.2817 0.436189 23.5621C0.715631 23.8425 1.09463 24 1.48982 24H9.47679L9.47179 23.9925ZM9.77256 18.9122H4.5673C4.38062 18.9122 4.2016 18.8378 4.0696 18.7054C3.93761 18.5729 3.86345 18.3933 3.86345 18.206C3.86345 18.0187 3.93761 17.839 4.0696 17.7066C4.2016 17.5741 4.38062 17.4997 4.5673 17.4997H9.7763C9.96297 17.4997 10.142 17.5741 10.274 17.7066C10.406 17.839 10.4801 18.0187 10.4801 18.206C10.4801 18.3933 10.406 18.5729 10.274 18.7054C10.142 18.8378 9.96297 18.9122 9.7763 18.9122H9.77256ZM14.9816 15.3071H4.5673C4.38062 15.3071 4.2016 15.2327 4.0696 15.1002C3.93761 14.9678 3.86345 14.7882 3.86345 14.6009C3.86345 14.4135 3.93761 14.2339 4.0696 14.1015C4.2016 13.969 4.38062 13.8946 4.5673 13.8946H14.9828C15.1695 13.8946 15.3485 13.969 15.4805 14.1015C15.6125 14.2339 15.6867 14.4135 15.6867 14.6009C15.6867 14.7882 15.6125 14.9678 15.4805 15.1002C15.3485 15.2327 15.1695 15.3071 14.9828 15.3071H14.9816ZM4.5673 10.0666H14.9828C15.1695 10.0666 15.3485 10.141 15.4805 10.2734C15.6125 10.4059 15.6867 10.5855 15.6867 10.7728C15.6867 10.9601 15.6125 11.1398 15.4805 11.2722C15.3485 11.4047 15.1695 11.4791 14.9828 11.4791H4.5673C4.38062 11.4791 4.2016 11.4047 4.0696 11.2722C3.93761 11.1398 3.86345 10.9601 3.86345 10.7728C3.86345 10.5855 3.93761 10.4059 4.0696 10.2734C4.2016 10.141 4.38062 10.0666 4.5673 10.0666Z" fill="#374858"/>
<path d="M0.647129 6.00434H4.73795C5.06591 6.00204 5.37978 5.8703 5.61168 5.6376C5.84359 5.4049 5.97489 5.08996 5.97718 4.76088V0.648601C5.97718 0.56585 5.96084 0.483918 5.92909 0.407544C5.89735 0.33117 5.85082 0.261869 5.79222 0.203647C5.73361 0.145425 5.66409 0.099437 5.58766 0.0683428C5.51124 0.0372486 5.42942 0.0216647 5.34696 0.0224922C5.265 0.0224007 5.18387 0.0388745 5.10839 0.0709306C5.03292 0.102987 4.96465 0.149968 4.90767 0.209073L0.20285 4.92993C0.113455 5.01737 0.0522467 5.12969 0.0271462 5.2524C0.00204561 5.3751 0.0142087 5.50254 0.0620509 5.61824C0.109893 5.73394 0.191219 5.83257 0.29552 5.9014C0.399822 5.97023 0.522305 6.00609 0.647129 6.00434Z" fill="#374858"/>
</svg>
