<svg width="26" height="21" viewBox="0 0 26 21" fill="none" xmlns="http://www.w3.org/2000/svg">
<path d="M18.7854 10.4993C19.4261 10.4993 20.0524 10.2793 20.5852 9.86723C21.1179 9.45513 21.5331 8.86939 21.7783 8.18408C22.0235 7.49878 22.0877 6.74469 21.9627 6.01717C21.8377 5.28965 21.5291 4.62139 21.0761 4.09688C20.623 3.57237 20.0458 3.21517 19.4174 3.07046C18.7889 2.92575 18.1376 3.00002 17.5456 3.28388C16.9537 3.56775 16.4477 4.04845 16.0918 4.66521C15.7358 5.28197 15.5458 6.00708 15.5458 6.74885C15.5445 7.24178 15.6274 7.73014 15.7898 8.18583C15.9521 8.64153 16.1907 9.05556 16.4918 9.40412C16.7929 9.75268 17.1505 10.0289 17.5441 10.2168C17.9377 10.4048 18.3596 10.5008 18.7854 10.4993ZM9.0703 8.9994C9.83892 8.99912 10.5902 8.73502 11.2292 8.24048C11.8682 7.74594 12.3662 7.04317 12.6602 6.22101C12.9542 5.39886 13.0311 4.49423 12.8811 3.62151C12.7311 2.74878 12.3609 1.94714 11.8174 1.31793C11.2739 0.688723 10.5815 0.260198 9.82765 0.0865311C9.07381 -0.0871355 8.29241 0.00185472 7.58225 0.342252C6.87209 0.68265 6.26505 1.25917 5.83787 1.99893C5.4107 2.73868 5.18257 3.60846 5.18233 4.4983C5.18009 5.09012 5.27912 5.67659 5.47371 6.22387C5.66831 6.77114 5.95461 7.26837 6.31609 7.68685C6.67756 8.10534 7.10706 8.43679 7.57979 8.66207C8.05251 8.88735 8.55909 9.002 9.0703 8.9994ZM18.7854 13.4991C16.4148 13.4991 11.659 14.8797 11.659 17.6242V20.9986H25.9117V17.6242C25.9141 14.8783 21.1584 13.4991 18.7854 13.4991ZM9.0703 11.9992C6.05131 11.9992 0 13.7488 0 17.2495V21H9.0703V17.6242C9.10594 16.5095 9.41322 15.4292 9.95665 14.5081C10.5001 13.587 11.2575 12.8627 12.1414 12.4187C11.1319 12.1638 10.1033 12.0233 9.0703 11.9992Z" fill="#2D421E"/>
</svg>
