<svg width="24" height="24" viewBox="0 0 24 24" fill="none" xmlns="http://www.w3.org/2000/svg">
<g clip-path="url(#clip0_1_2930)">
<path d="M15.9456 9V7H7.97276V9C6.65167 9.00159 5.38514 9.52888 4.45098 10.4662C3.51683 11.4036 2.99133 12.6744 2.98975 14V19C2.99133 20.3256 3.51683 21.5964 4.45098 22.5338C5.38514 23.4711 6.65167 23.9984 7.97276 24H15.9456C17.2667 23.9984 18.5332 23.4711 19.4674 22.5338C20.4015 21.5964 20.927 20.3256 20.9286 19V14C20.927 12.6744 20.4015 11.4036 19.4674 10.4662C18.5332 9.52888 17.2667 9.00159 15.9456 9ZM14.949 17H12.9558V19C12.9558 19.2652 12.8508 19.5196 12.6639 19.7071C12.477 19.8946 12.2235 20 11.9592 20C11.6949 20 11.4414 19.8946 11.2545 19.7071C11.0676 19.5196 10.9626 19.2652 10.9626 19V17H8.96936C8.70505 17 8.45156 16.8946 8.26466 16.7071C8.07776 16.5196 7.97276 16.2652 7.97276 16C7.97276 15.7348 8.07776 15.4804 8.26466 15.2929C8.45156 15.1054 8.70505 15 8.96936 15H10.9626V13C10.9626 12.7348 11.0676 12.4804 11.2545 12.2929C11.4414 12.1054 11.6949 12 11.9592 12C12.2235 12 12.477 12.1054 12.6639 12.2929C12.8508 12.4804 12.9558 12.7348 12.9558 13V15H14.949C15.2133 15 15.4668 15.1054 15.6537 15.2929C15.8406 15.4804 15.9456 15.7348 15.9456 16C15.9456 16.2652 15.8406 16.5196 15.6537 16.7071C15.4668 16.8946 15.2133 17 14.949 17ZM15.4473 5H8.47106C7.81027 5 7.17655 4.73661 6.7093 4.26777C6.24205 3.79893 5.97955 3.16304 5.97955 2.5C5.97955 1.83696 6.24205 1.20107 6.7093 0.732233C7.17655 0.263392 7.81027 0 8.47106 0L15.4473 0C16.1081 0 16.7418 0.263392 17.209 0.732233C17.6763 1.20107 17.9388 1.83696 17.9388 2.5C17.9388 3.16304 17.6763 3.79893 17.209 4.26777C16.7418 4.73661 16.1081 5 15.4473 5Z" fill="#4B4403"/>
</g>
<defs>
<clipPath id="clip0_1_2930">
<rect width="23.9185" height="24" fill="white"/>
</clipPath>
</defs>
</svg>
