<svg width="24" height="24" viewBox="0 0 24 24" fill="none" xmlns="http://www.w3.org/2000/svg">
<g clip-path="url(#clip0_1_2938)">
<path d="M15.9458 7C15.4172 7 14.9102 6.78929 14.5364 6.41421C14.1626 6.03914 13.9526 5.53043 13.9526 5V0H7.973C6.65191 0.00158786 5.38538 0.528882 4.45123 1.46622C3.51708 2.40356 2.99157 3.67441 2.98999 5V19C2.99157 20.3256 3.51708 21.5964 4.45123 22.5338C5.38538 23.4711 6.65191 23.9984 7.973 24H15.9458C17.2669 23.9984 18.5334 23.4711 19.4676 22.5338C20.4018 21.5964 20.9273 20.3256 20.9288 19V7H15.9458ZM11.6714 19.7L10.0659 21.339C9.64454 21.761 9.07357 21.9979 8.47828 21.9979C7.88299 21.9979 7.31203 21.761 6.89069 21.339L6.26184 20.7C6.08073 20.5092 5.98196 20.2545 5.987 19.991C5.99204 19.7276 6.10048 19.4769 6.28875 19.2932C6.47702 19.1096 6.72992 19.0079 6.99248 19.0103C7.25504 19.0127 7.50605 19.1189 7.69097 19.306L8.30487 19.939C8.35219 19.9821 8.41423 20.0052 8.47809 20.0035C8.54194 20.0018 8.6027 19.9755 8.6477 19.93L10.2542 18.3C10.3433 18.1962 10.4526 18.1118 10.5755 18.0522C10.6983 17.9925 10.8321 17.9588 10.9685 17.9532C11.1049 17.9475 11.2409 17.97 11.3683 18.0193C11.4956 18.0686 11.6115 18.1436 11.7088 18.2397C11.8061 18.3358 11.8826 18.4509 11.9337 18.5779C11.9848 18.7049 12.0094 18.8411 12.0059 18.978C12.0024 19.1149 11.9709 19.2496 11.9133 19.3738C11.8558 19.498 11.7735 19.6091 11.6714 19.7ZM12.956 15V14H10.9628V15C10.9628 15.2652 10.8578 15.5196 10.6709 15.7071C10.484 15.8946 10.2305 16 9.96621 16C9.70189 16 9.4484 15.8946 9.2615 15.7071C9.07461 15.5196 8.96961 15.2652 8.96961 15V11C8.96961 10.2044 9.2846 9.44129 9.8453 8.87868C10.406 8.31607 11.1665 8 11.9594 8C12.7524 8 13.5128 8.31607 14.0735 8.87868C14.6342 9.44129 14.9492 10.2044 14.9492 11V15C14.9492 15.2652 14.8442 15.5196 14.6573 15.7071C14.4704 15.8946 14.2169 16 13.9526 16C13.6883 16 13.4348 15.8946 13.2479 15.7071C13.061 15.5196 12.956 15.2652 12.956 15ZM16.9424 21H14.9492C14.6849 21 14.4314 20.8946 14.2445 20.7071C14.0576 20.5196 13.9526 20.2652 13.9526 20C13.9526 19.7348 14.0576 19.4804 14.2445 19.2929C14.4314 19.1054 14.6849 19 14.9492 19H16.9424C17.2067 19 17.4602 19.1054 17.6471 19.2929C17.834 19.4804 17.939 19.7348 17.939 20C17.939 20.2652 17.834 20.5196 17.6471 20.7071C17.4602 20.8946 17.2067 21 16.9424 21ZM12.956 11V12H10.9628V11C10.9628 10.7348 11.0678 10.4804 11.2547 10.2929C11.4416 10.1054 11.6951 10 11.9594 10C12.2237 10 12.4772 10.1054 12.6641 10.2929C12.851 10.4804 12.956 10.7348 12.956 11ZM20.6299 5H15.9458V0.3C16.6492 0.541978 17.2893 0.939823 17.8184 1.464L19.4688 3.122C19.9918 3.65229 20.3887 4.29426 20.6299 5Z" fill="#242222"/>
</g>
<defs>
<clipPath id="clip0_1_2938">
<rect width="23.9185" height="24" fill="white" transform="translate(0.000244141)"/>
</clipPath>
</defs>
</svg>
