<svg width="16" height="20" viewBox="0 0 16 20" fill="none" xmlns="http://www.w3.org/2000/svg">
<path d="M7.59 19.16H13.99C14.3067 19.16 14.6104 19.0342 14.8343 18.8103C15.0582 18.5864 15.184 18.2827 15.184 17.966V1.194C15.184 1.03712 15.1531 0.881773 15.093 0.736845C15.033 0.591917 14.9449 0.460247 14.8339 0.349361C14.723 0.238475 14.5912 0.150546 14.4462 0.0906011C14.3012 0.0306558 14.1459 -0.000130974 13.989 4.18799e-07H5.462V0.395C5.46661 0.436843 5.46895 0.478905 5.469 0.521V3.791C5.46874 4.23675 5.29154 4.66416 4.97635 4.97935C4.66116 5.29455 4.23375 5.47174 3.788 5.472H0.518997C0.484997 5.472 0.448999 5.472 0.418999 5.472H0V17.972C0 18.2887 0.125798 18.5924 0.349716 18.8163C0.573635 19.0402 0.877332 19.166 1.194 19.166H7.594L7.59 19.16ZM7.831 15.103H3.66C3.51041 15.103 3.36696 15.0436 3.26119 14.9378C3.15542 14.832 3.096 14.6886 3.096 14.539C3.096 14.3894 3.15542 14.246 3.26119 14.1402C3.36696 14.0344 3.51041 13.975 3.66 13.975H7.834C7.98358 13.975 8.12703 14.0344 8.2328 14.1402C8.33857 14.246 8.39799 14.3894 8.39799 14.539C8.39799 14.6886 8.33857 14.832 8.2328 14.9378C8.12703 15.0436 7.98358 15.103 7.834 15.103H7.831ZM12.005 12.224H3.66C3.51041 12.224 3.36696 12.1646 3.26119 12.0588C3.15542 11.953 3.096 11.8096 3.096 11.66C3.096 11.5104 3.15542 11.367 3.26119 11.2612C3.36696 11.1554 3.51041 11.096 3.66 11.096H12.006C12.1556 11.096 12.299 11.1554 12.4048 11.2612C12.5106 11.367 12.57 11.5104 12.57 11.66C12.57 11.8096 12.5106 11.953 12.4048 12.0588C12.299 12.1646 12.1556 12.224 12.006 12.224H12.005ZM3.66 8.039H12.006C12.1556 8.039 12.299 8.09842 12.4048 8.20419C12.5106 8.30996 12.57 8.45342 12.57 8.603C12.57 8.75258 12.5106 8.89604 12.4048 9.00181C12.299 9.10758 12.1556 9.167 12.006 9.167H3.66C3.51041 9.167 3.36696 9.10758 3.26119 9.00181C3.15542 8.89604 3.096 8.75258 3.096 8.603C3.096 8.45342 3.15542 8.30996 3.26119 8.20419C3.36696 8.09842 3.51041 8.039 3.66 8.039Z" fill="#7F8F98"/>
<path d="M0.519007 4.795H3.79701C4.0598 4.79317 4.31131 4.68796 4.49713 4.50213C4.68296 4.3163 4.78817 4.06479 4.79 3.802V0.518C4.79001 0.451916 4.77691 0.386487 4.75147 0.325496C4.72604 0.264505 4.68875 0.209162 4.64179 0.162667C4.59483 0.116172 4.53913 0.0794467 4.47788 0.0546153C4.41664 0.029784 4.35109 0.017339 4.28501 0.0179999C4.21933 0.0179268 4.15432 0.0310824 4.09384 0.0566819C4.03337 0.0822814 3.97866 0.1198 3.933 0.167L0.163004 3.937C0.0913712 4.00682 0.0423244 4.09653 0.0222112 4.19452C0.00209795 4.2925 0.0118443 4.39427 0.0501805 4.48667C0.0885167 4.57906 0.153684 4.65784 0.237261 4.7128C0.320838 4.76777 0.418985 4.7964 0.519007 4.795Z" fill="#7F8F98"/>
</svg>
