<svg width="25" height="25" viewBox="0 0 25 25" fill="none" xmlns="http://www.w3.org/2000/svg">
<path d="M9.54132 25C10.1734 24.9983 10.779 24.7621 11.2259 24.3432C11.6729 23.9243 11.9248 23.3567 11.9266 22.7643H7.16068C7.16068 23.3565 7.41135 23.9245 7.85767 24.3436C8.30399 24.7628 8.9095 24.9988 9.54132 25ZM16.702 18.2884V12.6991C16.702 9.26737 14.7463 6.39349 11.335 5.63431V4.87733C11.335 4.43261 11.1465 4.00611 10.811 3.69165C10.4755 3.37719 10.0205 3.20053 9.54601 3.20053C9.07154 3.20053 8.6165 3.37719 8.281 3.69165C7.9455 4.00611 7.75702 4.43261 7.75702 4.87733V5.63761C4.33397 6.39789 2.39002 9.25967 2.39002 12.7024V18.2917L0 20.5285V21.6464H19.0838V20.5285L16.702 18.2884Z" fill="#9094AF"/>
<path d="M18.1308 12.0026C21.3724 12.0026 24.0002 9.53959 24.0002 6.5013C24.0002 3.46302 21.3724 1 18.1308 1C14.8892 1 12.2614 3.46302 12.2614 6.5013C12.2614 9.53959 14.8892 12.0026 18.1308 12.0026Z" fill="#FF1111"/>
<path d="M18.131 11.4525C21.0484 11.4525 23.4135 9.2358 23.4135 6.50134C23.4135 3.76689 21.0484 1.55017 18.131 1.55017C15.2136 1.55017 12.8485 3.76689 12.8485 6.50134C12.8485 9.2358 15.2136 11.4525 18.131 11.4525Z" stroke="white" stroke-width="1.37564"/>
</svg>
