<svg width="25" height="24" viewBox="0 0 25 24" fill="none" xmlns="http://www.w3.org/2000/svg">
<rect x="0.578125" y="0.5" width="23" height="23" rx="7.5" stroke="#96999C"/>
<g clip-path="url(#clip0_1_1775)">
<path d="M15.5781 7.511C15.5781 7.507 15.5781 7.504 15.5781 7.5V6.5C15.5781 6.36739 15.5254 6.24021 15.4317 6.14645C15.3379 6.05268 15.2107 6 15.0781 6C14.9455 6 14.8183 6.05268 14.7246 6.14645C14.6308 6.24021 14.5781 6.36739 14.5781 6.5V7.05C14.4136 7.01658 14.246 6.99983 14.0781 7H13.5781V6.5C13.5781 6.36739 13.5254 6.24021 13.4317 6.14645C13.3379 6.05268 13.2107 6 13.0781 6C12.9455 6 12.8183 6.05268 12.7246 6.14645C12.6308 6.24021 12.5781 6.36739 12.5781 6.5V7H11.5781V6.5C11.5781 6.36739 11.5254 6.24021 11.4317 6.14645C11.3379 6.05268 11.2107 6 11.0781 6C10.9455 6 10.8183 6.05268 10.7246 6.14645C10.6308 6.24021 10.5781 6.36739 10.5781 6.5V7H10.0781C9.9102 6.99983 9.74269 7.01658 9.57812 7.05V6.5C9.57812 6.36739 9.52545 6.24021 9.43168 6.14645C9.33791 6.05268 9.21073 6 9.07812 6C8.94552 6 8.81834 6.05268 8.72457 6.14645C8.6308 6.24021 8.57812 6.36739 8.57812 6.5V7.5V7.511C8.26852 7.74219 8.01697 8.04227 7.84341 8.38749C7.66984 8.73272 7.57902 9.1136 7.57812 9.5V15.5C7.57892 16.1628 7.84257 16.7982 8.31123 17.2669C8.7799 17.7356 9.41533 17.9992 10.0781 18H14.0781C14.7409 17.9992 15.3763 17.7356 15.845 17.2669C16.3137 16.7982 16.5773 16.1628 16.5781 15.5V9.5C16.5772 9.1136 16.4864 8.73272 16.3128 8.38749C16.1393 8.04227 15.8877 7.74219 15.5781 7.511ZM12.0781 14.5H10.0781C9.94552 14.5 9.81834 14.4473 9.72457 14.3536C9.6308 14.2598 9.57812 14.1326 9.57812 14C9.57812 13.8674 9.6308 13.7402 9.72457 13.6464C9.81834 13.5527 9.94552 13.5 10.0781 13.5H12.0781C12.2107 13.5 12.3379 13.5527 12.4317 13.6464C12.5254 13.7402 12.5781 13.8674 12.5781 14C12.5781 14.1326 12.5254 14.2598 12.4317 14.3536C12.3379 14.4473 12.2107 14.5 12.0781 14.5ZM14.0781 12.5H10.0781C9.94552 12.5 9.81834 12.4473 9.72457 12.3536C9.6308 12.2598 9.57812 12.1326 9.57812 12C9.57812 11.8674 9.6308 11.7402 9.72457 11.6464C9.81834 11.5527 9.94552 11.5 10.0781 11.5H14.0781C14.2107 11.5 14.3379 11.5527 14.4317 11.6464C14.5254 11.7402 14.5781 11.8674 14.5781 12C14.5781 12.1326 14.5254 12.2598 14.4317 12.3536C14.3379 12.4473 14.2107 12.5 14.0781 12.5ZM14.0781 10.5H10.0781C9.94552 10.5 9.81834 10.4473 9.72457 10.3536C9.6308 10.2598 9.57812 10.1326 9.57812 10C9.57812 9.86739 9.6308 9.74021 9.72457 9.64645C9.81834 9.55268 9.94552 9.5 10.0781 9.5H14.0781C14.2107 9.5 14.3379 9.55268 14.4317 9.64645C14.5254 9.74021 14.5781 9.86739 14.5781 10C14.5781 10.1326 14.5254 10.2598 14.4317 10.3536C14.3379 10.4473 14.2107 10.5 14.0781 10.5Z" fill="#96999C"/>
</g>
<defs>
<clipPath id="clip0_1_1775">
<rect width="12" height="12" fill="white" transform="translate(6.07812 6)"/>
</clipPath>
</defs>
</svg>
