<svg width="25" height="24" viewBox="0 0 25 24" fill="none" xmlns="http://www.w3.org/2000/svg">
<rect x="0.578125" y="0.5" width="23" height="23" rx="7.5" stroke="#3497F9"/>
<path d="M16.6615 11.0833H12.9948V7.41667C12.9948 7.17355 12.8982 6.94039 12.7263 6.76849C12.5544 6.59658 12.3212 6.5 12.0781 6.5C11.835 6.5 11.6019 6.59658 11.4299 6.76849C11.258 6.94039 11.1615 7.17355 11.1615 7.41667V11.0833H7.49479C7.25168 11.0833 7.01852 11.1799 6.84661 11.3518C6.6747 11.5237 6.57812 11.7569 6.57812 12C6.57812 12.2431 6.6747 12.4763 6.84661 12.6482C7.01852 12.8201 7.25168 12.9167 7.49479 12.9167H11.1615V16.5833C11.1615 16.8264 11.258 17.0596 11.4299 17.2315C11.6019 17.4034 11.835 17.5 12.0781 17.5C12.3212 17.5 12.5544 17.4034 12.7263 17.2315C12.8982 17.0596 12.9948 16.8264 12.9948 16.5833V12.9167H16.6615C16.9046 12.9167 17.1377 12.8201 17.3096 12.6482C17.4815 12.4763 17.5781 12.2431 17.5781 12C17.5781 11.7569 17.4815 11.5237 17.3096 11.3518C17.1377 11.1799 16.9046 11.0833 16.6615 11.0833Z" fill="#3497F9"/>
</svg>
