<svg width="25" height="24" viewBox="0 0 25 24" fill="none" xmlns="http://www.w3.org/2000/svg">
<rect x="0.578125" y="0.5" width="23" height="23" rx="7.5" stroke="#EB5757"/>
<path d="M17.3281 7.33332H15.5198C15.2407 5.97625 14.0469 5.00175 12.6615 5H11.4948C10.1093 5.00175 8.91553 5.97625 8.63646 7.33332H6.82814C6.50597 7.33332 6.24481 7.59448 6.24481 7.91665C6.24481 8.23881 6.50597 8.5 6.82814 8.5H7.41146V16.0833C7.4134 17.6934 8.71811 18.9981 10.3281 19H13.8281C15.4382 18.9981 16.7429 17.6934 16.7448 16.0833V8.5H17.3281C17.6503 8.5 17.9115 8.23884 17.9115 7.91668C17.9115 7.59451 17.6503 7.33332 17.3281 7.33332ZM11.4948 14.9167C11.4948 15.2388 11.2337 15.5 10.9115 15.5C10.5893 15.5 10.3281 15.2388 10.3281 14.9167V11.4167C10.3281 11.0945 10.5893 10.8334 10.9115 10.8334C11.2336 10.8334 11.4948 11.0945 11.4948 11.4167V14.9167H11.4948ZM13.8281 14.9167C13.8281 15.2388 13.567 15.5 13.2448 15.5C12.9226 15.5 12.6615 15.2388 12.6615 14.9167V11.4167C12.6615 11.0945 12.9226 10.8334 13.2448 10.8334C13.567 10.8334 13.8281 11.0945 13.8281 11.4167V14.9167ZM9.84456 7.33332C10.0927 6.63466 10.7534 6.16755 11.4948 6.16665H12.6615C13.4029 6.16755 14.0636 6.63466 14.3117 7.33332H9.84456Z" fill="#EB5757"/>
</svg>
