<svg width="24" height="24" viewBox="0 0 24 24" fill="none" xmlns="http://www.w3.org/2000/svg">
<rect x="0.5" y="0.5" width="23" height="23" rx="7.5" fill="white" stroke="#3497F9"/>
<g clip-path="url(#clip0_1_864)">
<path d="M12.001 3.99997C10.4187 3.99997 8.87201 4.46916 7.55642 5.34821C6.24082 6.22726 5.21545 7.47669 4.60994 8.9385C4.00444 10.4003 3.84602 12.0088 4.1547 13.5607C4.46338 15.1125 5.22531 16.538 6.34413 17.6568C7.46295 18.7756 8.88841 19.5376 10.4403 19.8463C11.9921 20.1549 13.6006 19.9965 15.0624 19.391C16.5243 18.7855 17.7737 17.7601 18.6527 16.4445C19.5318 15.1289 20.001 13.5822 20.001 12C19.9987 9.87894 19.1551 7.84544 17.6553 6.34565C16.1555 4.84585 14.122 4.00226 12.001 3.99997V3.99997ZM12.001 18.6666C10.6824 18.6666 9.39351 18.2756 8.29718 17.5431C7.20085 16.8106 6.34637 15.7694 5.84178 14.5512C5.3372 13.333 5.20518 11.9926 5.46241 10.6994C5.71965 9.40616 6.35458 8.21828 7.28693 7.28592C8.21929 6.35357 9.40717 5.71864 10.7004 5.4614C11.9936 5.20417 13.334 5.33619 14.5522 5.84077C15.7704 6.34536 16.8116 7.19984 17.5441 8.29617C18.2767 9.3925 18.6676 10.6814 18.6676 12C18.6657 13.7675 17.9627 15.4621 16.7129 16.7119C15.4631 17.9617 13.7685 18.6647 12.001 18.6666Z" fill="white"/>
<path d="M12.0008 10.6668H11.3341C11.1573 10.6668 10.9878 10.7371 10.8627 10.8621C10.7377 10.9871 10.6675 11.1567 10.6675 11.3335C10.6675 11.5103 10.7377 11.6799 10.8627 11.8049C10.9878 11.9299 11.1573 12.0002 11.3341 12.0002H12.0008V16.0002C12.0008 16.177 12.071 16.3466 12.1961 16.4716C12.3211 16.5966 12.4907 16.6668 12.6675 16.6668C12.8443 16.6668 13.0139 16.5966 13.1389 16.4716C13.2639 16.3466 13.3341 16.177 13.3341 16.0002V12.0002C13.3341 11.6466 13.1937 11.3074 12.9436 11.0574C12.6936 10.8073 12.3544 10.6668 12.0008 10.6668Z" fill="#374957"/>
<path d="M12.001 9.33309C12.5533 9.33309 13.001 8.88538 13.001 8.33309C13.001 7.78081 12.5533 7.33309 12.001 7.33309C11.4487 7.33309 11.001 7.78081 11.001 8.33309C11.001 8.88538 11.4487 9.33309 12.001 9.33309Z" fill="#374957"/>
</g>
<defs>
<clipPath id="clip0_1_864">
<rect width="16" height="16" fill="white" transform="translate(4.00098 3.99997)"/>
</clipPath>
</defs>
</svg>
