<svg width="18" height="19" viewBox="0 0 18 19" fill="none" xmlns="http://www.w3.org/2000/svg">
<g clip-path="url(#clip0_1_361)">
<path d="M1.20499 13.754C1.82536 14.8307 3.20113 15.2006 4.27783 14.5802C4.27856 14.5798 4.27927 14.5794 4.28 14.579L4.61374 14.3862C5.24374 14.9252 5.96789 15.3432 6.74973 15.6192V16.004C6.74973 17.2466 7.7571 18.254 8.99973 18.254C10.2424 18.254 11.2497 17.2466 11.2497 16.004V15.6192C12.0317 15.3428 12.7559 14.9243 13.3857 14.3847L13.721 14.5782C14.7979 15.1996 16.1747 14.8302 16.796 13.7532C17.4173 12.6763 17.0479 11.2995 15.971 10.6782L15.638 10.4862C15.7879 9.67056 15.7879 8.83441 15.638 8.01871L15.971 7.82672C17.0479 7.20541 17.4173 5.82869 16.796 4.75171C16.1747 3.67477 14.7979 3.30538 13.721 3.9267L13.3872 4.11946C12.7566 3.58111 12.032 3.16388 11.2497 2.88875V2.504C11.2497 1.26136 10.2424 0.253998 8.99973 0.253998C7.7571 0.253998 6.74973 1.26136 6.74973 2.504V2.88875C5.96779 3.16518 5.2436 3.58368 4.61374 4.12326L4.27849 3.92902C3.20152 3.30767 1.8248 3.67706 1.20348 4.754C0.582165 5.83094 0.951517 7.20769 2.02849 7.82901L2.36149 8.021C2.21159 8.83666 2.21159 9.67281 2.36149 10.4885L2.02849 10.6805C0.954505 11.3035 0.586349 12.6775 1.20499 13.754ZM8.99973 6.25401C10.6566 6.25401 11.9997 7.59715 11.9997 9.254C11.9997 10.9108 10.6566 12.254 8.99973 12.254C7.34289 12.254 5.99974 10.9108 5.99974 9.254C5.99974 7.59715 7.34289 6.25401 8.99973 6.25401Z" fill="#7F8F98"/>
</g>
<defs>
<clipPath id="clip0_1_361">
<rect width="18" height="18" fill="white" transform="translate(0 0.253998)"/>
</clipPath>
</defs>
</svg>
