<svg width="19" height="19" viewBox="0 0 19 19" fill="none" xmlns="http://www.w3.org/2000/svg">
<g clip-path="url(#clip0_1_1259)">
<path d="M5.52865 19.0041C4.43128 19.0066 3.35785 18.6833 2.44444 18.0751C1.53103 17.4669 0.818777 16.6012 0.39797 15.5878C-0.0228371 14.5743 -0.133247 13.4587 0.0807384 12.3824C0.294723 11.3061 0.823467 10.3175 1.59994 9.54207L9.99089 1.16299C10.7336 0.418631 11.7415 -0.000213647 12.793 -0.00140128C13.8445 -0.00258891 14.8534 0.413978 15.5978 1.15666C16.3421 1.89934 16.761 2.9073 16.7622 3.9588C16.7634 5.01029 16.3468 6.0192 15.6041 6.76356L7.21238 15.1418C6.75852 15.5744 6.15561 15.8157 5.52865 15.8157C4.90168 15.8157 4.29877 15.5744 3.84491 15.1418C3.62411 14.9213 3.44895 14.6594 3.32944 14.3711C3.20993 14.0828 3.14842 13.7738 3.14842 13.4617C3.14842 13.1496 3.20993 12.8406 3.32944 12.5523C3.44895 12.264 3.62411 12.0021 3.84491 11.7815L11.677 3.96367L12.7995 5.08378L4.9674 12.9032C4.819 13.0516 4.73563 13.253 4.73563 13.4629C4.73563 13.6728 4.819 13.8741 4.9674 14.0225C5.11863 14.1668 5.31962 14.2473 5.52865 14.2473C5.73767 14.2473 5.93867 14.1668 6.08989 14.0225L14.4872 5.64344C14.9328 5.19679 15.1827 4.5914 15.182 3.96048C15.1812 3.32955 14.9299 2.72476 14.4832 2.27915C14.0366 1.83354 13.4312 1.58361 12.8002 1.58436C12.1693 1.5851 11.5645 1.83645 11.1189 2.2831L2.72243 10.6614C1.97964 11.4056 1.56293 12.4145 1.56397 13.466C1.56501 14.5175 1.98371 15.5255 2.72797 16.2683C3.47222 17.0111 4.48107 17.4278 5.53256 17.4267C6.58406 17.4257 7.59208 17.007 8.33487 16.2627L17.8507 6.76356L18.9732 7.88367L9.45735 17.3829C8.94141 17.8983 8.32879 18.3069 7.65461 18.5851C6.98043 18.8633 6.25797 19.0057 5.52865 19.0041Z" fill="#96999C"/>
</g>
<defs>
<clipPath id="clip0_1_1259">
<rect width="18.9984" height="18.9984" fill="white" transform="translate(0.000732422 6.10352e-05)"/>
</clipPath>
</defs>
</svg>
