<svg width="18" height="17" viewBox="0 0 18 17" fill="none" xmlns="http://www.w3.org/2000/svg">
<path d="M11.1768 6.78076L15.4761 6.78076C15.5529 6.78468 15.6297 6.77294 15.7018 6.74624C15.774 6.71955 15.8399 6.67847 15.8957 6.62548C15.9515 6.5725 15.9958 6.50874 16.0262 6.43806C16.0565 6.36738 16.0722 6.29127 16.0722 6.21436C16.0722 6.13744 16.0565 6.06133 16.0262 5.99065C15.9958 5.91998 15.9515 5.85621 15.8957 5.80323C15.8399 5.75025 15.774 5.70916 15.7018 5.68247C15.6297 5.65577 15.5529 5.64403 15.4761 5.64796L11.7439 5.64796L11.7439 1.91429C11.7479 1.83748 11.7361 1.76067 11.7094 1.68854C11.6827 1.6164 11.6416 1.55045 11.5887 1.4947C11.5357 1.43894 11.4719 1.39454 11.4012 1.36421C11.3306 1.33387 11.2544 1.31822 11.1775 1.31822C11.1006 1.31822 11.0245 1.33387 10.9538 1.36421C10.8831 1.39454 10.8194 1.43894 10.7664 1.4947C10.7134 1.55045 10.6724 1.6164 10.6457 1.68854C10.619 1.76067 10.6072 1.83748 10.6111 1.91429L10.6111 6.21362C10.6111 6.36378 10.6707 6.50781 10.7767 6.61412C10.8828 6.72044 11.0266 6.78036 11.1768 6.78076Z" fill="#3497F9" stroke="#3497F9" stroke-width="0.5"/>
<path d="M2.4064 11.5601L6.13858 11.5601L6.13858 15.2923C6.13858 15.4428 6.19833 15.587 6.30469 15.6933C6.41105 15.7997 6.5553 15.8595 6.70572 15.8595C6.85613 15.8595 7.00039 15.7997 7.10675 15.6933C7.21311 15.587 7.27286 15.4428 7.27286 15.2923L7.27286 10.993C7.27286 10.8426 7.21311 10.6984 7.10675 10.592C7.00039 10.4856 6.85613 10.4259 6.70572 10.4259L2.4064 10.4259C2.32958 10.4219 2.25277 10.4337 2.18064 10.4604C2.10851 10.4871 2.04256 10.5282 1.9868 10.5811C1.93104 10.6341 1.88665 10.6979 1.85631 10.7685C1.82597 10.8392 1.81033 10.9154 1.81033 10.9923C1.81033 11.0692 1.82597 11.1453 1.85631 11.216C1.88665 11.2866 1.93104 11.3504 1.9868 11.4034C2.04256 11.4564 2.10851 11.4975 2.18064 11.5242C2.25277 11.5509 2.32958 11.5626 2.4064 11.5587L2.4064 11.5601Z" fill="#3497F9" stroke="#3497F9" stroke-width="0.5"/>
<path d="M10.7779 6.61387C10.8842 6.7202 11.0284 6.77994 11.1788 6.77994C11.3292 6.77994 11.4735 6.7202 11.5798 6.61387L16.6014 1.59233C16.7052 1.48546 16.7627 1.34204 16.7616 1.19306C16.7606 1.04409 16.7009 0.901524 16.5956 0.79618C16.4902 0.690836 16.3476 0.631173 16.1986 0.630084C16.0497 0.628995 15.9063 0.686568 15.7994 0.790361L10.7779 5.8119C10.6715 5.91826 10.6118 6.06249 10.6118 6.21288C10.6118 6.36328 10.6715 6.50751 10.7779 6.61387Z" fill="#3497F9" stroke="#3497F9" stroke-width="0.5"/>
<path d="M1.28905 16.4089C1.39541 16.5152 1.53964 16.5749 1.69004 16.5749C1.84043 16.5749 1.98467 16.5152 2.09102 16.4089L7.11256 11.3873C7.16649 11.335 7.20947 11.2724 7.239 11.2033C7.26852 11.1341 7.28401 11.0598 7.28456 10.9846C7.28511 10.9094 7.27071 10.8349 7.2422 10.7653C7.21368 10.6958 7.17162 10.6326 7.11847 10.5795C7.06531 10.5263 7.00211 10.4842 6.93256 10.4557C6.863 10.4272 6.78847 10.4128 6.71329 10.4134C6.63812 10.4139 6.56381 10.4294 6.49467 10.4589C6.42554 10.4885 6.36297 10.5314 6.31059 10.5854L1.28905 15.6069C1.18272 15.7132 1.12298 15.8575 1.12298 16.0079C1.12298 16.1582 1.18272 16.3025 1.28905 16.4089Z" fill="#3497F9" stroke="#3497F9" stroke-width="0.5"/>
</svg>
