<svg width="24" height="24" viewBox="0 0 24 24" fill="none" xmlns="http://www.w3.org/2000/svg">
<rect width="24" height="24" rx="8" fill="#3497F9"/>
<path d="M6.8393 15.0624C6.09384 13.8057 5.83277 12.3201 6.10512 10.8846C6.37747 9.44908 7.1645 8.16235 8.31843 7.26603C9.47235 6.36972 10.9138 5.92548 12.3721 6.01674C13.8304 6.10799 15.2052 6.72846 16.2384 7.76164C17.2715 8.79482 17.892 10.1696 17.9833 11.6279C18.0745 13.0862 17.6303 14.5276 16.734 15.6816C15.8377 16.8355 14.551 17.6225 13.1154 17.8949C11.6799 18.1672 10.1943 17.9062 8.93766 17.1607L8.93767 17.1607L6.86539 17.7527C6.77965 17.7772 6.68892 17.7784 6.6026 17.756C6.51629 17.7336 6.43752 17.6886 6.37447 17.6255C6.31142 17.5625 6.26637 17.4837 6.24401 17.3974C6.22164 17.3111 6.22276 17.2204 6.24726 17.1346L6.83934 15.0623L6.8393 15.0624Z" fill="white"/>
</svg>
