<svg width="12" height="13" viewBox="0 0 12 13" fill="none" xmlns="http://www.w3.org/2000/svg">
<path d="M10.934 1.0005H8.02298C7.97097 0.997843 7.91899 1.00579 7.87015 1.02387C7.82131 1.04194 7.77664 1.06976 7.73889 1.10563C7.70114 1.1415 7.67108 1.18468 7.65054 1.23254C7.63 1.28039 7.61938 1.33192 7.61938 1.384C7.61938 1.43608 7.63 1.48761 7.65054 1.53546C7.67108 1.58332 7.70114 1.6265 7.73889 1.66237C7.77664 1.69824 7.82131 1.72606 7.87015 1.74413C7.91899 1.76221 7.97097 1.77016 8.02298 1.7675H10.55V4.2955C10.5473 4.34751 10.5553 4.39952 10.5734 4.44836C10.5914 4.4972 10.6192 4.54185 10.6551 4.5796C10.691 4.61735 10.7342 4.64741 10.782 4.66796C10.8299 4.6885 10.8814 4.69909 10.9335 4.69909C10.9856 4.69909 11.0371 4.6885 11.085 4.66796C11.1328 4.64741 11.176 4.61735 11.2119 4.5796C11.2477 4.54185 11.2755 4.4972 11.2936 4.44836C11.3117 4.39952 11.3196 4.34751 11.317 4.2955V1.3845C11.317 1.28283 11.2767 1.18531 11.2049 1.11332C11.1331 1.04134 11.0357 1.00076 10.934 1.0005Z" fill="#3497F9" stroke="#3497F9" stroke-width="0.5"/>
<path d="M4.03292 11.0194H1.50592V8.4924C1.50592 8.39056 1.46546 8.2929 1.39344 8.22089C1.32143 8.14887 1.22376 8.1084 1.12192 8.1084C1.02007 8.1084 0.9224 8.14887 0.850386 8.22089C0.778372 8.2929 0.737915 8.39056 0.737915 8.4924L0.737915 11.4034C0.737915 11.5053 0.778372 11.6029 0.850386 11.6749C0.9224 11.7469 1.02007 11.7874 1.12192 11.7874H4.03292C4.08492 11.7901 4.13693 11.7821 4.18577 11.764C4.23461 11.746 4.27927 11.7182 4.31702 11.6823C4.35477 11.6464 4.38483 11.6032 4.40537 11.5554C4.42591 11.5075 4.4365 11.456 4.4365 11.4039C4.4365 11.3518 4.42591 11.3003 4.40537 11.2524C4.38483 11.2046 4.35477 11.1614 4.31702 11.1255C4.27927 11.0897 4.23461 11.0618 4.18577 11.0438C4.13693 11.0257 4.08492 11.0178 4.03292 11.0204V11.0194Z" fill="#3497F9" stroke="#3497F9" stroke-width="0.5"/>
<path d="M11.205 1.11342C11.133 1.04142 11.0353 1.00098 10.9335 1.00098C10.8317 1.00098 10.734 1.04142 10.662 1.11342L7.26197 4.51342C7.1917 4.58578 7.15272 4.68289 7.15345 4.78376C7.15419 4.88462 7.19458 4.98115 7.26591 5.05248C7.33724 5.12381 7.43378 5.1642 7.53465 5.16494C7.63552 5.16568 7.73261 5.1267 7.80497 5.05642L11.205 1.65642C11.277 1.58441 11.3174 1.48675 11.3174 1.38492C11.3174 1.28309 11.277 1.18543 11.205 1.11342Z" fill="#3497F9" stroke="#3497F9" stroke-width="0.5"/>
<path d="M4.78896 7.73645C4.71695 7.66445 4.61929 7.62402 4.51746 7.62402C4.41563 7.62402 4.31797 7.66445 4.24596 7.73645L0.845961 11.1364C0.809447 11.1719 0.780348 11.2143 0.760355 11.2611C0.740362 11.3079 0.729874 11.3582 0.729502 11.4091C0.72913 11.46 0.738881 11.5105 0.758188 11.5576C0.777494 11.6047 0.805972 11.6474 0.841963 11.6834C0.877955 11.7194 0.920743 11.7479 0.967839 11.7672C1.01494 11.7865 1.0654 11.7963 1.1163 11.7959C1.1672 11.7955 1.21751 11.785 1.26432 11.765C1.31113 11.7451 1.3535 11.716 1.38896 11.6794L4.78896 8.27945C4.86096 8.20744 4.9014 8.10979 4.9014 8.00797C4.9014 7.90614 4.86096 7.80846 4.78896 7.73645Z" fill="#3497F9" stroke="#3497F9" stroke-width="0.5"/>
</svg>
