<svg width="32" height="32" viewBox="0 0 32 32" fill="none" xmlns="http://www.w3.org/2000/svg">
<path d="M16 32C24.8366 32 32 24.8366 32 16C32 7.16344 24.8366 0 16 0C7.16344 0 0 7.16344 0 16C0 24.8366 7.16344 32 16 32Z" fill="#7CA1B1"/>
<path d="M15.0561 22.1306H9.57977V11.7976H14.8255V12.8929H10.7903V16.33H14.5229V17.418H10.7903V21.0353H15.0561V22.1306ZM18.2554 18.2251V22.1306H17.0449V11.7976H19.8839C20.9888 11.7976 21.8439 12.0666 22.4492 12.6046C23.0592 13.1427 23.3643 13.9017 23.3643 14.8816C23.3643 15.8616 23.0256 16.6638 22.3483 17.2883C21.6757 17.9128 20.7654 18.2251 19.6173 18.2251H18.2554ZM18.2554 12.8929V17.1298H19.5236C20.3595 17.1298 20.996 16.9401 21.4331 16.5606C21.8751 16.1763 22.0961 15.6358 22.0961 14.9393C22.0961 13.575 21.289 12.8929 19.675 12.8929H18.2554Z" fill="white"/>
</svg>
