<svg width="32" height="32" viewBox="0 0 32 32" fill="none" xmlns="http://www.w3.org/2000/svg">
<path d="M16 32C24.8366 32 32 24.8366 32 16C32 7.16344 24.8366 0 16 0C7.16344 0 0 7.16344 0 16C0 24.8366 7.16344 32 16 32Z" fill="#538CFF"/>
<path d="M15.7379 22.3219H14.0583L10.0818 17.6133C9.9335 17.4362 9.84258 17.3166 9.80908 17.2544H9.78037V22.3219H8.57451V12.029H9.78037V16.8668H9.80908C9.87607 16.7615 9.96699 16.6443 10.0818 16.5151L13.9291 12.029H15.4292L11.0149 16.9673L15.7379 22.3219ZM24.4804 22.3219H23.0448L21.3222 19.4364C21.1643 19.1685 21.0111 18.9412 20.8628 18.7546C20.7145 18.5631 20.5613 18.4076 20.4034 18.288C20.2503 18.1684 20.0828 18.0822 19.901 18.0296C19.7239 17.9722 19.5229 17.9435 19.298 17.9435H18.3075V22.3219H17.1017V12.029H20.1737C20.6235 12.029 21.0375 12.0864 21.4155 12.2013C21.7983 12.3113 22.1285 12.4812 22.406 12.7109C22.6883 12.9406 22.9084 13.2277 23.0664 13.5722C23.2243 13.912 23.3032 14.3115 23.3032 14.7709C23.3032 15.1298 23.2482 15.46 23.1381 15.7614C23.0329 16.0581 22.8797 16.3237 22.6788 16.5582C22.4826 16.7926 22.2433 16.9936 21.961 17.1611C21.6834 17.3238 21.37 17.4506 21.0207 17.5415V17.5702C21.193 17.6468 21.3413 17.7353 21.4657 17.8358C21.5949 17.9315 21.7169 18.0463 21.8318 18.1803C21.9466 18.3143 22.0591 18.4674 22.1691 18.6397C22.284 18.8072 22.4108 19.0034 22.5496 19.2283L24.4804 22.3219ZM18.3075 13.12V16.8525H19.944C20.2455 16.8525 20.523 16.807 20.7767 16.7161C21.0351 16.6252 21.2576 16.496 21.4442 16.3285C21.6308 16.1562 21.7768 15.9481 21.882 15.704C21.9873 15.4552 22.0399 15.1776 22.0399 14.8714C22.0399 14.3211 21.8605 13.8928 21.5016 13.5866C21.1475 13.2755 20.6331 13.12 19.9584 13.12H18.3075Z" fill="white"/>
</svg>
