<svg width="23" height="18" viewBox="0 0 23 18" fill="none" xmlns="http://www.w3.org/2000/svg">
<path d="M22.1541 11.215C22.1507 8.26546 20.9869 5.43569 18.9142 3.33717C16.8415 1.23866 14.0264 0.0399242 11.0771 0C8.12785 0.0399242 5.31271 1.23866 3.24002 3.33717C1.16732 5.43569 0.00353273 8.26546 0.000125537 11.215C-0.0472672 13.0913 0.381397 14.9491 1.24613 16.615H8.03113C8.41062 17.0498 8.87879 17.3983 9.40419 17.6371C9.92958 17.8759 10.5 17.9995 11.0771 17.9995C11.6542 17.9995 12.2247 17.8759 12.7501 17.6371C13.2755 17.3983 13.7436 17.0498 14.1231 16.615H20.9081C21.7729 14.9491 22.2015 13.0913 22.1541 11.215ZM19.3851 6.923V8.308L13.7081 13.154C13.7677 13.3818 13.8137 13.6128 13.8461 13.846C13.8461 14.3937 13.6837 14.929 13.3795 15.3844C13.0752 15.8397 12.6427 16.1946 12.1368 16.4042C11.6308 16.6138 11.0741 16.6686 10.5369 16.5618C9.99979 16.455 9.5064 16.1912 9.11915 15.804C8.7319 15.4167 8.46817 14.9233 8.36133 14.3862C8.25449 13.8491 8.30932 13.2923 8.5189 12.7863C8.72848 12.2804 9.08339 11.8479 9.53875 11.5437C9.99411 11.2394 10.5295 11.077 11.0771 11.077C11.4624 11.0863 11.8408 11.1809 12.1851 11.354L18.0001 6.923H19.3851ZM13.8461 2.769H15.2311V4.154H13.8461V2.769ZM6.92313 2.769H8.30813V4.154H6.92313V2.769ZM2.76913 13.846H1.38513V12.462H2.76913V13.846ZM4.15413 8.308H2.76913V6.923H4.15413V8.308ZM20.7691 13.846H19.3851V12.462H20.7701L20.7691 13.846Z" fill="#7F8F98"/>
</svg>
