<svg width="20" height="21" viewBox="0 0 20 21" fill="none" xmlns="http://www.w3.org/2000/svg">
<path d="M19.997 17.928C19.9958 17.6379 19.931 17.3517 19.8071 17.0894C19.6832 16.8271 19.5033 16.5952 19.28 16.41C17.6071 15.0576 15.8035 13.8754 13.896 12.881L12.454 20.746H20L19.997 17.928ZM6.137 9.03602C6.22812 9.57082 6.4144 10.085 6.687 10.554V11.911L9.678 14.094L8.567 15.524L9.323 16.739L8.723 20.744H11.28L10.694 16.744L11.45 15.529L10.32 14.096L13.32 11.916V10.557C13.5926 10.088 13.7789 9.57382 13.87 9.03902C14.086 9.02102 14.37 8.71702 14.678 7.63302C15.078 6.20002 14.678 5.94802 14.314 5.96302C15.225 1.76302 12.872 1.75102 12.872 1.75102C12.6861 1.22823 12.3232 0.786908 11.8462 0.503475C11.3692 0.220042 10.8081 0.112341 10.26 0.199017C9.07324 0.32295 7.87626 0.311878 6.692 0.166016C6.69038 0.33228 6.72538 0.496863 6.79451 0.648083C6.86364 0.799303 6.96521 0.933453 7.092 1.04102C4.98 2.32502 5.466 5.15702 5.654 5.97202C5.296 5.97202 4.922 6.24802 5.317 7.64202C5.627 8.71402 5.91 9.01802 6.137 9.03602ZM6.104 12.881C4.19608 13.8705 2.3915 15.0477 0.717 16.395C0.493866 16.5801 0.314025 16.8118 0.190145 17.0739C0.066265 17.336 0.00135943 17.6221 0 17.912V20.745H7.546L6.104 12.881Z" fill="#7F8F98"/>
</svg>
