<svg width="14" height="14" viewBox="0 0 14 14" fill="none" xmlns="http://www.w3.org/2000/svg">
<g clip-path="url(#clip0_1_149)">
<path d="M13.9999 13.1756L10.347 9.52274C11.2959 8.36225 11.7624 6.88146 11.6501 5.38665C11.5378 3.89184 10.8552 2.49738 9.74363 1.49171C8.63201 0.486038 7.17638 -0.053906 5.67783 -0.0164374C4.17928 0.0210311 2.75245 0.633045 1.69248 1.69301C0.632511 2.75298 0.0204971 4.17981 -0.0169715 5.67836C-0.05444 7.17692 0.485504 8.63255 1.49118 9.74416C2.49685 10.8558 3.89131 11.5383 5.38612 11.6506C6.88093 11.763 8.36172 11.2964 9.52221 10.3476L13.175 14.0004L13.9999 13.1756ZM5.83321 10.5004C4.91023 10.5004 4.00797 10.2267 3.24054 9.71393C2.47312 9.20115 1.87498 8.47232 1.52177 7.6196C1.16856 6.76687 1.07614 5.82856 1.25621 4.92332C1.43627 4.01807 1.88073 3.18655 2.53337 2.53391C3.18602 1.88126 4.01754 1.43681 4.92278 1.25674C5.82803 1.07668 6.76634 1.16909 7.61906 1.5223C8.47178 1.87551 9.20062 2.47365 9.7134 3.24108C10.2262 4.00851 10.4999 4.91076 10.4999 5.83374C10.4985 7.07099 10.0064 8.25717 9.1315 9.13204C8.25663 10.0069 7.07046 10.499 5.83321 10.5004Z" fill="#374957"/>
</g>
<defs>
<clipPath id="clip0_1_149">
<rect width="14" height="14" fill="white"/>
</clipPath>
</defs>
</svg>
