<svg width="19" height="19" viewBox="0 0 19 19" fill="none" xmlns="http://www.w3.org/2000/svg">
<path d="M9.49993 18.9984C7.62117 18.9984 5.78459 18.4413 4.22246 17.3975C2.66033 16.3538 1.44279 14.8702 0.72382 13.1344C0.00484829 11.3987 -0.183267 9.48872 0.183261 7.64606C0.549789 5.80339 1.4545 4.1108 2.78299 2.78231C4.11147 1.45383 5.80407 0.549118 7.64673 0.18259C9.48939 -0.183939 11.3994 0.0041769 13.1351 0.723148C14.8709 1.44212 16.3544 2.65965 17.3982 4.22179C18.442 5.78392 18.9991 7.62049 18.9991 9.49926C18.9964 12.0178 17.9947 14.4323 16.2139 16.2132C14.433 17.994 12.0184 18.9957 9.49993 18.9984V18.9984ZM9.49993 1.58326C7.93429 1.58326 6.40382 2.04753 5.10204 2.91735C3.80026 3.78717 2.78565 5.02348 2.1865 6.46994C1.58736 7.9164 1.4306 9.50804 1.73604 11.0436C2.04148 12.5791 2.7954 13.9896 3.90248 15.0967C5.00955 16.2038 6.42004 16.9577 7.9556 17.2631C9.49115 17.5686 11.0828 17.4118 12.5292 16.8127C13.9757 16.2135 15.212 15.1989 16.0818 13.8971C16.9517 12.5954 17.4159 11.0649 17.4159 9.49926C17.4136 7.40051 16.5789 5.38839 15.0948 3.90435C13.6108 2.42031 11.5987 1.58557 9.49993 1.58326V1.58326ZM13.9851 12.4646L12.9323 11.2819C11.9646 12.0967 10.7622 12.5815 9.49993 12.6657C8.23845 12.5815 7.03665 12.0974 6.06914 11.2835L5.01473 12.4646C6.27168 13.5384 7.84882 14.1658 9.49993 14.2489C11.151 14.1658 12.7282 13.5384 13.9851 12.4646ZM7.91673 8.70766V7.91606C7.91673 7.49617 7.74993 7.09348 7.45302 6.79657C7.15611 6.49966 6.75342 6.33286 6.33353 6.33286C5.91364 6.33286 5.51095 6.49966 5.21404 6.79657C4.91713 7.09348 4.75033 7.49617 4.75033 7.91606V8.70766H7.91673ZM11.0831 7.91606V8.70766H14.2495V7.91606C14.2495 7.49617 14.0827 7.09348 13.7858 6.79657C13.4889 6.49966 13.0862 6.33286 12.6663 6.33286C12.2464 6.33286 11.8437 6.49966 11.5468 6.79657C11.2499 7.09348 11.0831 7.49617 11.0831 7.91606Z" fill="#96999C"/>
</svg>
